<svg width="231" height="32" viewBox="0 0 231 32" fill="none" xmlns="http://www.w3.org/2000/svg">
<path d="M3.9937 20.9792C3.52437 20.9792 3.11904 20.8896 2.7777 20.7104C2.4449 20.5311 2.18037 20.2922 1.9841 19.9936H1.6513V15.0399H1.9841C2.1889 14.7669 2.4577 14.5407 2.7905 14.3615C3.13184 14.1738 3.5329 14.0799 3.9937 14.0799C4.54837 14.0799 5.04757 14.2207 5.4913 14.5023C5.93504 14.7754 6.2849 15.1765 6.5409 15.7055C6.7969 16.2261 6.9249 16.8362 6.9249 17.5359C6.9249 18.2357 6.7969 18.8458 6.5409 19.3663C6.2849 19.8869 5.93504 20.2879 5.4913 20.5695C5.04757 20.8426 4.54837 20.9792 3.9937 20.9792ZM0.704102 14.2719H1.9585V23.0656H0.704102V14.2719ZM3.7889 19.9423C4.18144 19.9423 4.51424 19.8357 4.7873 19.6223C5.0689 19.4005 5.2737 19.1061 5.4017 18.7391C5.53824 18.3722 5.6065 17.9711 5.6065 17.5359C5.6065 17.0922 5.53824 16.6869 5.4017 16.3199C5.2737 15.953 5.0689 15.6629 4.7873 15.4495C4.51424 15.2362 4.18144 15.1295 3.7889 15.1295C3.41344 15.1295 3.08917 15.2277 2.8161 15.4239C2.54304 15.6117 2.33397 15.889 2.1889 16.2559C2.04384 16.6143 1.9713 17.041 1.9713 17.5359C1.9713 18.0223 2.04384 18.449 2.1889 18.8159C2.33397 19.1743 2.54304 19.4517 2.8161 19.6479C3.08917 19.8442 3.41344 19.9423 3.7889 19.9423ZM11.0505 20.9919C10.3849 20.9919 9.80466 20.8469 9.3097 20.5567C8.8233 20.2666 8.44786 19.8613 8.1833 19.3408C7.91877 18.8117 7.7865 18.2101 7.7865 17.5359C7.7865 16.8618 7.91877 16.2602 8.1833 15.7311C8.44786 15.2021 8.8233 14.7925 9.3097 14.5023C9.80466 14.2122 10.3891 14.0671 11.0633 14.0671C11.7289 14.0671 12.3049 14.2122 12.7913 14.5023C13.2777 14.7925 13.6531 15.2021 13.9177 15.7311C14.1823 16.2517 14.3145 16.849 14.3145 17.5231C14.3145 18.2058 14.1823 18.8117 13.9177 19.3408C13.6531 19.8613 13.2735 20.2666 12.7785 20.5567C12.2921 20.8469 11.7161 20.9919 11.0505 20.9919ZM11.0633 19.9551C11.4899 19.9551 11.8483 19.8527 12.1385 19.6479C12.4371 19.4346 12.6547 19.1445 12.7913 18.7775C12.9363 18.4106 13.0089 17.9925 13.0089 17.5231C13.0089 16.8149 12.8425 16.2389 12.5097 15.7951C12.1769 15.3429 11.6947 15.1167 11.0633 15.1167C10.6281 15.1167 10.2611 15.2191 9.9625 15.4239C9.67234 15.6287 9.45474 15.9146 9.3097 16.2815C9.16466 16.6485 9.0921 17.0666 9.0921 17.5359C9.0921 18.2527 9.2585 18.8373 9.5913 19.2895C9.9241 19.7333 10.4147 19.9551 11.0633 19.9551ZM14.7588 14.2719H16.1156L17.498 19.3279H17.5236L18.8804 14.2719H20.1476L21.5044 19.3279H21.53L22.9252 14.2719H24.2308L22.2084 20.7999H20.9156L19.5076 15.7695H19.482L18.074 20.7999H16.7812L14.7588 14.2719ZM27.9059 20.9919C27.2318 20.9919 26.6515 20.8469 26.1651 20.5567C25.6787 20.2581 25.3075 19.8442 25.0515 19.3151C24.804 18.7861 24.6803 18.1887 24.6803 17.5231C24.6803 16.8405 24.8083 16.2389 25.0643 15.7183C25.3288 15.1978 25.7043 14.7925 26.1907 14.5023C26.6771 14.2122 27.2488 14.0671 27.9059 14.0671C28.5544 14.0671 29.1091 14.2037 29.5699 14.4767C30.0392 14.7498 30.3934 15.1381 30.6323 15.6415C30.8798 16.1365 31.0035 16.721 31.0035 17.3951C31.0035 17.6341 30.9992 17.7919 30.9907 17.8687H25.3075V16.8831H29.6979C29.6979 16.5418 29.6211 16.2346 29.4675 15.9615C29.3224 15.6885 29.1091 15.4751 28.8275 15.3215C28.5544 15.1679 28.2344 15.0911 27.8675 15.0911C27.5091 15.0911 27.1848 15.1722 26.8947 15.3343C26.6046 15.4965 26.3784 15.7269 26.2163 16.0255C26.0542 16.3157 25.9731 16.6527 25.9731 17.0367C25.9731 17.2927 25.9731 17.5487 25.9731 17.8047C25.9731 18.1887 26.0456 18.5471 26.1907 18.88C26.3443 19.2042 26.5662 19.4687 26.8563 19.6735C27.1464 19.8698 27.5048 19.9679 27.9315 19.9679C28.2814 19.9679 28.5758 19.9039 28.8147 19.7759C29.0622 19.6479 29.2499 19.4986 29.3779 19.3279C29.5059 19.1487 29.5955 18.9696 29.6467 18.7904H30.9267C30.739 19.456 30.3934 19.9893 29.8899 20.3904C29.3864 20.7914 28.7251 20.9919 27.9059 20.9919ZM32.562 15.5135H33.4836C33.6628 15.0698 33.8932 14.7285 34.1748 14.4895C34.4649 14.2421 34.8191 14.1183 35.2372 14.1183C35.4591 14.1183 35.6596 14.1311 35.8388 14.1567V15.3599C35.6852 15.3343 35.5444 15.3215 35.4164 15.3215C35.0409 15.3215 34.7039 15.4111 34.4052 15.5903C34.1065 15.7695 33.8719 16.017 33.7012 16.3327C33.5391 16.6485 33.458 17.0111 33.458 17.4207L32.562 15.5135ZM32.2036 14.2719H33.458V20.7999H32.2036V14.2719ZM39.3994 20.9919C38.7253 20.9919 38.145 20.8469 37.6586 20.5567C37.1722 20.2581 36.801 19.8442 36.545 19.3151C36.2975 18.7861 36.1738 18.1887 36.1738 17.5231C36.1738 16.8405 36.3018 16.2389 36.5578 15.7183C36.8223 15.1978 37.1978 14.7925 37.6842 14.5023C38.1706 14.2122 38.7423 14.0671 39.3994 14.0671C40.0479 14.0671 40.6026 14.2037 41.0634 14.4767C41.5327 14.7498 41.8869 15.1381 42.1258 15.6415C42.3733 16.1365 42.497 16.721 42.497 17.3951C42.497 17.6341 42.4927 17.7919 42.4842 17.8687H36.801V16.8831H41.1914C41.1914 16.5418 41.1146 16.2346 40.961 15.9615C40.8159 15.6885 40.6026 15.4751 40.321 15.3215C40.0479 15.1679 39.7279 15.0911 39.361 15.0911C39.0026 15.0911 38.6783 15.1722 38.3882 15.3343C38.0981 15.4965 37.8719 15.7269 37.7098 16.0255C37.5477 16.3157 37.4666 16.6527 37.4666 17.0367C37.4666 17.2927 37.4666 17.5487 37.4666 17.8047C37.4666 18.1887 37.5391 18.5471 37.6842 18.88C37.8378 19.2042 38.0597 19.4687 38.3498 19.6735C38.6399 19.8698 38.9983 19.9679 39.425 19.9679C39.7749 19.9679 40.0693 19.9039 40.3082 19.7759C40.5557 19.6479 40.7434 19.4986 40.8714 19.3279C40.9994 19.1487 41.089 18.9696 41.1402 18.7904H42.4202C42.2325 19.456 41.8869 19.9893 41.3834 20.3904C40.8799 20.7914 40.2186 20.9919 39.3994 20.9919ZM46.2955 20.9792C45.7408 20.9792 45.2416 20.8426 44.7979 20.5695C44.3542 20.2879 44.0043 19.8869 43.7483 19.3663C43.4923 18.8458 43.3643 18.2357 43.3643 17.5359C43.3643 16.8362 43.4923 16.2261 43.7483 15.7055C44.0043 15.1765 44.3542 14.7754 44.7979 14.5023C45.2416 14.2207 45.7408 14.0799 46.2955 14.0799C46.7648 14.0799 47.1659 14.1738 47.4987 14.3615C47.8315 14.5407 48.1003 14.7754 48.3051 15.0655H48.6379V20.0319H48.3051C48.1003 20.305 47.8272 20.5311 47.4859 20.7104C47.1531 20.8896 46.7563 20.9792 46.2955 20.9792ZM46.5003 19.9423C46.8758 19.9423 47.2 19.8442 47.4731 19.6479C47.7462 19.4517 47.9552 19.1743 48.1003 18.8159C48.2454 18.449 48.3179 18.0223 48.3179 17.5359C48.3179 17.041 48.2454 16.6143 48.1003 16.2559C47.9552 15.889 47.7462 15.6117 47.4731 15.4239C47.2 15.2277 46.8758 15.1295 46.5003 15.1295C46.1078 15.1295 45.7707 15.2362 45.4891 15.4495C45.216 15.6629 45.0112 15.953 44.8747 16.3199C44.7382 16.6869 44.6699 17.0922 44.6699 17.5359C44.6699 17.9711 44.7382 18.3722 44.8747 18.7391C45.0112 19.1061 45.216 19.4005 45.4891 19.6223C45.7707 19.8357 46.1078 19.9423 46.5003 19.9423ZM48.3307 11.6479H49.5851V20.7999H48.3307V11.6479ZM57.2177 20.9792C56.7484 20.9792 56.3431 20.8896 56.0017 20.7104C55.6689 20.5311 55.4044 20.2922 55.2081 19.9936H54.8753V15.0399H55.2081C55.4129 14.7669 55.6817 14.5407 56.0145 14.3615C56.3559 14.1738 56.7569 14.0799 57.2177 14.0799C57.7724 14.0799 58.2715 14.2207 58.7153 14.5023C59.1591 14.7754 59.5089 15.1765 59.7649 15.7055C60.0209 16.2261 60.1489 16.8362 60.1489 17.5359C60.1489 18.2357 60.0209 18.8458 59.7649 19.3663C59.5089 19.8869 59.1591 20.2879 58.7153 20.5695C58.2715 20.8426 57.7724 20.9792 57.2177 20.9792ZM53.9281 11.6479H55.1825V20.7999H53.9281V11.6479ZM57.0129 19.9423C57.4055 19.9423 57.7383 19.8357 58.0113 19.6223C58.2929 19.4005 58.4977 19.1061 58.6257 18.7391C58.7623 18.3722 58.8305 17.9711 58.8305 17.5359C58.8305 17.0922 58.7623 16.6869 58.6257 16.3199C58.4977 15.953 58.2929 15.6629 58.0113 15.4495C57.7383 15.2362 57.4055 15.1295 57.0129 15.1295C56.6375 15.1295 56.3132 15.2277 56.0401 15.4239C55.7671 15.6117 55.558 15.889 55.4129 16.2559C55.2679 16.6143 55.1953 17.041 55.1953 17.5359C55.1953 18.0223 55.2679 18.449 55.4129 18.8159C55.558 19.1743 55.7671 19.4517 56.0401 19.6479C56.3132 19.8442 56.6375 19.9423 57.0129 19.9423ZM62.026 23.0912C61.7784 23.0912 61.5096 23.0613 61.2196 23.0016V21.9775C61.4414 22.0031 61.6206 22.016 61.7572 22.016C61.9534 22.016 62.1326 21.9775 62.2948 21.9007C62.4654 21.8239 62.6232 21.6917 62.7684 21.5039C62.9134 21.3162 63.0244 21.0602 63.1012 20.7359L60.4644 14.2719H61.834L63.7412 19.2639H63.7668L65.5588 14.2719H66.8772L64.2916 20.9535C64.0868 21.4911 63.8734 21.9135 63.6516 22.2207C63.4382 22.5279 63.1992 22.7498 62.9347 22.8863C62.6702 23.0229 62.3672 23.0912 62.026 23.0912Z" fill="#374151"/>
<path d="M96 32C104.837 32 112 24.8366 112 16C112 7.16344 104.837 0 96 0C87.1632 0 80 7.16344 80 16C80 24.8366 87.1632 32 96 32Z" fill="url(#paint0_linear_16_199)"/>
<path fill-rule="evenodd" clip-rule="evenodd" d="M93.7974 6.80005C93.315 6.80005 92.8526 6.99151 92.5118 7.33231C92.171 7.67312 91.9798 8.13533 91.9798 8.61733V9.79229C91.9798 10.0132 91.8006 10.1923 91.5798 10.1923H88.5102C88.0286 10.1923 87.5662 10.3837 87.2254 10.7245C86.8846 11.0653 86.6934 11.5276 86.6934 12.0096V15.534C86.6934 16.016 86.8846 16.4782 87.2254 16.819C87.3742 16.9676 87.5454 17.0878 87.7318 17.1761C87.8934 17.2528 88.015 17.4058 88.015 17.5847V22.1422C88.015 22.741 88.2526 23.3153 88.6758 23.7388C89.0998 24.1622 89.6742 24.4001 90.2726 24.4001H101.727C102.325 24.4001 102.9 24.1622 103.324 23.7388C103.747 23.3153 103.985 22.741 103.985 22.1422V17.5847C103.985 17.4058 104.106 17.2528 104.268 17.1761C104.454 17.0878 104.625 16.9676 104.774 16.819C105.115 16.4782 105.306 16.016 105.306 15.534V12.0096C105.306 11.5276 105.115 11.0653 104.774 10.7245C104.433 10.3837 103.971 10.1923 103.489 10.1923H100.42C100.199 10.1923 100.02 10.0132 100.02 9.79229V8.61733C100.02 8.13533 99.8286 7.67312 99.4878 7.33231C99.147 6.99151 98.6846 6.80005 98.2022 6.80005H93.7974ZM97.7478 10.1923C97.9686 10.1923 98.1478 10.0132 98.1478 9.79229V9.07237C98.1478 8.85149 97.9686 8.67237 97.7478 8.67237H94.2518C94.031 8.67237 93.8518 8.85149 93.8518 9.07237V9.79229C93.8518 10.0132 94.031 10.1923 94.2518 10.1923H97.7478ZM88.9654 12.0646C88.7446 12.0646 88.5654 12.2437 88.5654 12.4646V15.0946C88.5654 15.3069 88.7374 15.4789 88.9494 15.4789H88.951H103.047H103.049H103.05C103.262 15.4789 103.434 15.3069 103.434 15.0946V12.4646C103.434 12.2437 103.255 12.0646 103.034 12.0646H88.9654ZM89.887 22.1422V17.7513C89.887 17.5304 90.0662 17.3512 90.287 17.3512H101.713C101.933 17.3512 102.113 17.5304 102.113 17.7513V22.1422C102.113 22.2445 102.072 22.3425 102 22.4148C101.927 22.4871 101.829 22.5277 101.727 22.5277H90.2726C90.1702 22.5277 90.0726 22.4871 89.9998 22.4148C89.9278 22.3425 89.887 22.2445 89.887 22.1422Z" fill="url(#paint1_linear_16_199)"/>
<path d="M123.706 22.7009H120L125.222 8.9729H128.698L133.958 22.7009H130.176L129.293 19.8401H124.589L123.706 22.7009ZM126.931 12.1409L125.376 17.2097H128.525L126.97 12.1409H126.931ZM139.054 23.0273C135.944 23.0273 133.986 20.8577 133.986 17.7857C133.986 14.7329 135.944 12.5441 138.978 12.5441C141.819 12.5441 143.547 14.2337 143.797 16.5377H140.706C140.61 15.7313 140.264 14.8481 139.035 14.8481C137.768 14.8481 137.134 15.9425 137.134 17.7857C137.134 19.6289 137.749 20.7233 139.035 20.7233C140.245 20.7233 140.61 19.8977 140.706 18.9953H143.797C143.643 21.3377 141.877 23.0273 139.054 23.0273ZM149.784 23.0273C146.674 23.0273 144.715 20.8577 144.715 17.7857C144.715 14.7329 146.674 12.5441 149.707 12.5441C152.549 12.5441 154.277 14.2337 154.526 16.5377H151.435C151.339 15.7313 150.994 14.8481 149.765 14.8481C148.498 14.8481 147.864 15.9425 147.864 17.7857C147.864 19.6289 148.478 20.7233 149.765 20.7233C150.974 20.7233 151.339 19.8977 151.435 18.9953H154.526C154.373 21.3377 152.606 23.0273 149.784 23.0273ZM160.667 23.0273C157.422 23.0273 155.445 20.9153 155.445 17.8049C155.445 14.7137 157.422 12.5441 160.725 12.5441C163.97 12.5441 165.947 14.6561 165.947 17.7473C165.947 20.8577 163.97 23.0273 160.667 23.0273ZM160.706 20.7233C162.069 20.7233 162.837 19.6865 162.837 17.7857C162.837 15.8849 162.069 14.8481 160.706 14.8481C159.323 14.8481 158.555 15.8849 158.555 17.7857C158.555 19.6865 159.323 20.7233 160.706 20.7233ZM173.796 18.5537V12.8705H176.868V22.7009H173.796V21.2801H173.758C173.239 22.1825 172.279 23.0081 170.532 23.0081C168.631 23.0081 167.345 21.7601 167.345 19.5137V12.8705H170.417V18.5345C170.417 20.0129 170.935 20.5121 171.953 20.5121C173.124 20.5121 173.796 19.9169 173.796 18.5537ZM185.086 12.5633C186.987 12.5633 188.274 13.8113 188.274 16.0577V22.7009H185.202V17.0369C185.202 15.5585 184.683 15.0593 183.666 15.0593C182.494 15.0593 181.822 15.6545 181.822 17.0177V22.7009H178.75V12.8705H181.822V14.2913H181.861C182.379 13.3889 183.339 12.5633 185.086 12.5633ZM194.863 20.5889C195.151 20.5889 195.324 20.5697 195.689 20.5121V22.6817C195.036 22.8353 194.479 22.8929 193.865 22.8929C191.714 22.8929 190.793 21.9137 190.793 19.5137V15.1745H189.43V12.8705H190.793V10.1249H193.865V12.8705H195.574V15.1745H193.865V19.4369C193.865 20.4929 194.268 20.5889 194.863 20.5889ZM213.826 22.7009H209.794L206.242 17.3441L204.822 18.9953V22.7009H201.366V8.9729H204.822V14.8289L209.737 8.9729H213.442L208.278 14.9825L213.826 22.7009ZM217.578 11.6993H214.506V8.9729H217.578V11.6993ZM217.578 22.7009H214.506V12.8705H217.578V22.7009ZM224.318 20.5889C224.606 20.5889 224.779 20.5697 225.144 20.5121V22.6817C224.491 22.8353 223.934 22.8929 223.32 22.8929C221.17 22.8929 220.248 21.9137 220.248 19.5137V15.1745H218.885V12.8705H220.248V10.1249H223.32V12.8705H225.029V15.1745H223.32V19.4369C223.32 20.4929 223.723 20.5889 224.318 20.5889Z" fill="black"/>
<defs>
<linearGradient id="paint0_linear_16_199" x1="80" y1="0" x2="113.532" y2="30.305" gradientUnits="userSpaceOnUse">
<stop stop-color="#FF9C27"/>
<stop offset="1" stop-color="#FD48CE"/>
</linearGradient>
<linearGradient id="paint1_linear_16_199" x1="95.9998" y1="6.80005" x2="95.9998" y2="24.4001" gradientUnits="userSpaceOnUse">
<stop offset="0.166667" stop-color="white"/>
<stop offset="1" stop-color="white" stop-opacity="0.5"/>
</linearGradient>
</defs>
</svg>
