<svg width="384" height="40" viewBox="0 0 384 40" fill="none" xmlns="http://www.w3.org/2000/svg">
<path d="M5.112 24.512C4.52533 24.512 4.01867 24.4 3.592 24.176C3.176 23.952 2.84533 23.6533 2.6 23.28H2.184V17.088H2.6C2.856 16.7467 3.192 16.464 3.608 16.24C4.03467 16.0053 4.536 15.888 5.112 15.888C5.80533 15.888 6.42933 16.064 6.984 16.416C7.53867 16.7573 7.976 17.2587 8.296 17.92C8.616 18.5707 8.776 19.3333 8.776 20.208C8.776 21.0827 8.616 21.8453 8.296 22.496C7.976 23.1467 7.53867 23.648 6.984 24C6.42933 24.3413 5.80533 24.512 5.112 24.512ZM1 16.128H2.568V27.12H1V16.128ZM4.856 23.216C5.34667 23.216 5.76267 23.0827 6.104 22.816C6.456 22.5387 6.712 22.1707 6.872 21.712C7.04267 21.2533 7.128 20.752 7.128 20.208C7.128 19.6533 7.04267 19.1467 6.872 18.688C6.712 18.2293 6.456 17.8667 6.104 17.6C5.76267 17.3333 5.34667 17.2 4.856 17.2C4.38667 17.2 3.98133 17.3227 3.64 17.568C3.29867 17.8027 3.03733 18.1493 2.856 18.608C2.67467 19.056 2.584 19.5893 2.584 20.208C2.584 20.816 2.67467 21.3493 2.856 21.808C3.03733 22.256 3.29867 22.6027 3.64 22.848C3.98133 23.0933 4.38667 23.216 4.856 23.216ZM13.933 24.528C13.101 24.528 12.3757 24.3467 11.757 23.984C11.149 23.6213 10.6797 23.1147 10.349 22.464C10.0183 21.8027 9.853 21.0507 9.853 20.208C9.853 19.3653 10.0183 18.6133 10.349 17.952C10.6797 17.2907 11.149 16.7787 11.757 16.416C12.3757 16.0533 13.1063 15.872 13.949 15.872C14.781 15.872 15.501 16.0533 16.109 16.416C16.717 16.7787 17.1863 17.2907 17.517 17.952C17.8477 18.6027 18.013 19.3493 18.013 20.192C18.013 21.0453 17.8477 21.8027 17.517 22.464C17.1863 23.1147 16.7117 23.6213 16.093 23.984C15.485 24.3467 14.765 24.528 13.933 24.528ZM13.949 23.232C14.4823 23.232 14.9303 23.104 15.293 22.848C15.6663 22.5813 15.9383 22.2187 16.109 21.76C16.2903 21.3013 16.381 20.7787 16.381 20.192C16.381 19.3067 16.173 18.5867 15.757 18.032C15.341 17.4667 14.7383 17.184 13.949 17.184C13.405 17.184 12.9463 17.312 12.573 17.568C12.2103 17.824 11.9383 18.1813 11.757 18.64C11.5757 19.0987 11.485 19.6213 11.485 20.208C11.485 21.104 11.693 21.8347 12.109 22.4C12.525 22.9547 13.1383 23.232 13.949 23.232ZM18.5684 16.128H20.2644L21.9924 22.448H22.0244L23.7204 16.128H25.3044L27.0004 22.448H27.0324L28.7764 16.128H30.4084L27.8804 24.288H26.2644L24.5044 18H24.4724L22.7124 24.288H21.0964L18.5684 16.128ZM35.0022 24.528C34.1596 24.528 33.4342 24.3467 32.8262 23.984C32.2182 23.6107 31.7542 23.0933 31.4342 22.432C31.1249 21.7707 30.9702 21.024 30.9702 20.192C30.9702 19.3387 31.1302 18.5867 31.4502 17.936C31.7809 17.2853 32.2502 16.7787 32.8582 16.416C33.4662 16.0533 34.1809 15.872 35.0022 15.872C35.8129 15.872 36.5062 16.0427 37.0822 16.384C37.6689 16.7253 38.1116 17.2107 38.4102 17.84C38.7196 18.4587 38.8742 19.1893 38.8742 20.032C38.8742 20.3307 38.8689 20.528 38.8582 20.624H31.7542V19.392H37.2423C37.2423 18.9653 37.1463 18.5813 36.9542 18.24C36.7729 17.8987 36.5062 17.632 36.1542 17.44C35.8129 17.248 35.4129 17.152 34.9542 17.152C34.5062 17.152 34.1009 17.2533 33.7382 17.456C33.3756 17.6587 33.0929 17.9467 32.8902 18.32C32.6876 18.6827 32.5862 19.104 32.5862 19.584C32.5862 19.904 32.5862 20.224 32.5862 20.544C32.5862 21.024 32.6769 21.472 32.8582 21.888C33.0502 22.2933 33.3276 22.624 33.6902 22.88C34.0529 23.1253 34.5009 23.248 35.0342 23.248C35.4716 23.248 35.8396 23.168 36.1382 23.008C36.4476 22.848 36.6822 22.6613 36.8422 22.448C37.0022 22.224 37.1142 22 37.1782 21.776H38.7782C38.5436 22.608 38.1116 23.2747 37.4822 23.776C36.8529 24.2773 36.0262 24.528 35.0022 24.528ZM40.8224 17.68H41.9744C42.1984 17.1253 42.4864 16.6987 42.8384 16.4C43.201 16.0907 43.6437 15.936 44.1664 15.936C44.4437 15.936 44.6944 15.952 44.9184 15.984V17.488C44.7264 17.456 44.5504 17.44 44.3904 17.44C43.921 17.44 43.4997 17.552 43.1264 17.776C42.753 18 42.4597 18.3093 42.2464 18.704C42.0437 19.0987 41.9424 19.552 41.9424 20.064L40.8224 17.68ZM40.3744 16.128H41.9424V24.288H40.3744V16.128ZM49.3691 24.528C48.5265 24.528 47.8011 24.3467 47.1931 23.984C46.5851 23.6107 46.1211 23.0933 45.8011 22.432C45.4918 21.7707 45.3371 21.024 45.3371 20.192C45.3371 19.3387 45.4971 18.5867 45.8171 17.936C46.1478 17.2853 46.6171 16.7787 47.2251 16.416C47.8331 16.0533 48.5478 15.872 49.3691 15.872C50.1798 15.872 50.8731 16.0427 51.4491 16.384C52.0358 16.7253 52.4785 17.2107 52.7771 17.84C53.0865 18.4587 53.2411 19.1893 53.2411 20.032C53.2411 20.3307 53.2358 20.528 53.2251 20.624H46.1211V19.392H51.6091C51.6091 18.9653 51.5131 18.5813 51.3211 18.24C51.1398 17.8987 50.8731 17.632 50.5211 17.44C50.1798 17.248 49.7798 17.152 49.3211 17.152C48.8731 17.152 48.4678 17.2533 48.1051 17.456C47.7425 17.6587 47.4598 17.9467 47.2571 18.32C47.0545 18.6827 46.9531 19.104 46.9531 19.584C46.9531 19.904 46.9531 20.224 46.9531 20.544C46.9531 21.024 47.0438 21.472 47.2251 21.888C47.4171 22.2933 47.6945 22.624 48.0571 22.88C48.4198 23.1253 48.8678 23.248 49.4011 23.248C49.8385 23.248 50.2065 23.168 50.5051 23.008C50.8145 22.848 51.0491 22.6613 51.2091 22.448C51.3691 22.224 51.4811 22 51.5451 21.776H53.1451C52.9105 22.608 52.4785 23.2747 51.8491 23.776C51.2198 24.2773 50.3931 24.528 49.3691 24.528ZM57.9892 24.512C57.2959 24.512 56.6719 24.3413 56.1172 24C55.5626 23.648 55.1252 23.1467 54.8052 22.496C54.4852 21.8453 54.3252 21.0827 54.3252 20.208C54.3252 19.3333 54.4852 18.5707 54.8052 17.92C55.1252 17.2587 55.5626 16.7573 56.1172 16.416C56.6719 16.064 57.2959 15.888 57.9892 15.888C58.5759 15.888 59.0772 16.0053 59.4932 16.24C59.9092 16.464 60.2452 16.7573 60.5012 17.12H60.9172V23.328H60.5012C60.2452 23.6693 59.9039 23.952 59.4772 24.176C59.0612 24.4 58.5652 24.512 57.9892 24.512ZM58.2452 23.216C58.7146 23.216 59.1199 23.0933 59.4612 22.848C59.8026 22.6027 60.0639 22.256 60.2452 21.808C60.4266 21.3493 60.5172 20.816 60.5172 20.208C60.5172 19.5893 60.4266 19.056 60.2452 18.608C60.0639 18.1493 59.8026 17.8027 59.4612 17.568C59.1199 17.3227 58.7146 17.2 58.2452 17.2C57.7546 17.2 57.3332 17.3333 56.9812 17.6C56.6399 17.8667 56.3839 18.2293 56.2132 18.688C56.0426 19.1467 55.9572 19.6533 55.9572 20.208C55.9572 20.752 56.0426 21.2533 56.2132 21.712C56.3839 22.1707 56.6399 22.5387 56.9812 22.816C57.3332 23.0827 57.7546 23.216 58.2452 23.216ZM60.5332 12.848H62.1012V24.288H60.5332V12.848ZM71.642 24.512C71.0553 24.512 70.5487 24.4 70.122 24.176C69.706 23.952 69.3753 23.6533 69.13 23.28H68.714V17.088H69.13C69.386 16.7467 69.722 16.464 70.138 16.24C70.5647 16.0053 71.066 15.888 71.642 15.888C72.3353 15.888 72.9593 16.064 73.514 16.416C74.0687 16.7573 74.506 17.2587 74.826 17.92C75.146 18.5707 75.306 19.3333 75.306 20.208C75.306 21.0827 75.146 21.8453 74.826 22.496C74.506 23.1467 74.0687 23.648 73.514 24C72.9593 24.3413 72.3353 24.512 71.642 24.512ZM67.53 12.848H69.098V24.288H67.53V12.848ZM71.386 23.216C71.8767 23.216 72.2927 23.0827 72.634 22.816C72.986 22.5387 73.242 22.1707 73.402 21.712C73.5727 21.2533 73.658 20.752 73.658 20.208C73.658 19.6533 73.5727 19.1467 73.402 18.688C73.242 18.2293 72.986 17.8667 72.634 17.6C72.2927 17.3333 71.8767 17.2 71.386 17.2C70.9167 17.2 70.5113 17.3227 70.17 17.568C69.8287 17.8027 69.5673 18.1493 69.386 18.608C69.2047 19.056 69.114 19.5893 69.114 20.208C69.114 20.816 69.2047 21.3493 69.386 21.808C69.5673 22.256 69.8287 22.6027 70.17 22.848C70.5113 23.0933 70.9167 23.216 71.386 23.216ZM77.6523 27.152C77.3429 27.152 77.0069 27.1147 76.6443 27.04V25.76C76.9216 25.792 77.1456 25.808 77.3163 25.808C77.5616 25.808 77.7856 25.76 77.9883 25.664C78.2016 25.568 78.3989 25.4027 78.5803 25.168C78.7616 24.9333 78.9003 24.6133 78.9963 24.208L75.7003 16.128H77.4123L79.7963 22.368H79.8283L82.0683 16.128H83.7163L80.4843 24.48C80.2283 25.152 79.9616 25.68 79.6843 26.064C79.4176 26.448 79.1189 26.7253 78.7883 26.896C78.4576 27.0667 78.0789 27.152 77.6523 27.152Z" fill="#374151"/>
<path d="M139.716 20C139.716 31.0457 130.762 40 119.716 40C108.671 40 99.7163 31.0457 99.7163 20C99.7163 8.9543 108.671 0 119.716 0C130.762 0 139.716 8.9543 139.716 20Z" fill="url(#paint0_linear_1985_122)"/>
<path opacity="0.5" d="M129.651 17.0156H109.765C108.643 17.0156 107.733 18.1043 107.733 19.4474V26.9757C107.733 28.3187 108.643 29.4075 109.765 29.4075H129.651C130.774 29.4075 131.684 28.3187 131.684 26.9757V19.4474C131.684 18.1043 130.774 17.0156 129.651 17.0156Z" fill="white"/>
<path opacity="0.25" d="M127.965 21.233H111.452C110.519 21.233 109.764 22.1342 109.764 23.2459V29.4773C109.764 30.589 110.519 31.4902 111.452 31.4902H127.965C128.898 31.4902 129.653 30.589 129.653 29.4773V23.2459C129.653 22.1342 128.898 21.233 127.965 21.233Z" fill="white"/>
<path d="M131.462 11.6526H107.971C106.726 11.6526 105.716 12.7966 105.716 14.2077V24.5586C105.716 25.9697 106.726 27.1136 107.971 27.1136H131.462C132.707 27.1136 133.716 25.9697 133.716 24.5586V14.2077C133.716 12.7966 132.707 11.6526 131.462 11.6526Z" fill="white"/>
<path d="M117.361 19.1472C117.361 21.7036 115.308 23.7761 112.775 23.7761C110.242 23.7761 108.189 21.7036 108.189 19.1472C108.189 16.5907 110.242 14.5183 112.775 14.5183C115.308 14.5183 117.361 16.5907 117.361 19.1472Z" fill="url(#paint1_linear_1985_122)"/>
<path fill-rule="evenodd" clip-rule="evenodd" d="M112.821 20.496C113.898 20.496 114.772 19.6145 114.772 18.5271C114.772 17.4397 113.898 16.5582 112.821 16.5582C111.743 16.5582 110.87 17.4397 110.87 18.5271C110.87 19.6145 111.743 20.496 112.821 20.496ZM112.334 20.8728C110.462 20.8728 108.944 22.3907 108.944 24.2632H116.65C116.65 22.3907 115.132 20.8728 113.26 20.8728H112.334Z" fill="url(#paint2_linear_1985_122)"/>
<path d="M130.365 14.4059L130.336 14.5014V17.27L130.365 17.298L131.676 16.5383L130.365 14.4059Z" fill="url(#paint3_linear_1985_122)"/>
<path d="M130.365 14.4059L129.054 16.5383L130.365 17.298V15.9542V14.4059Z" fill="url(#paint4_linear_1985_122)"/>
<path d="M130.365 17.5413L130.349 17.5606V18.5468L130.365 18.593L131.677 16.782L130.365 17.5413Z" fill="url(#paint5_linear_1985_122)"/>
<path d="M130.365 18.593V17.5413L129.054 16.782L130.365 18.593Z" fill="url(#paint6_linear_1985_122)"/>
<path d="M130.365 17.298L131.676 16.5383L130.365 15.9542V17.298Z" fill="url(#paint7_linear_1985_122)"/>
<path d="M129.054 16.5383L130.365 17.298V15.9542L129.054 16.5383Z" fill="url(#paint8_linear_1985_122)"/>
<path opacity="0.4" d="M130.935 21.6835H121.293C120.883 21.6835 120.551 22.0609 120.551 22.5264C120.551 22.9919 120.883 23.3693 121.293 23.3693H130.935C131.345 23.3693 131.677 22.9919 131.677 22.5264C131.677 22.0609 131.345 21.6835 130.935 21.6835Z" fill="#FFCDE6"/>
<path d="M170.116 28.5H157.252V11.34H169.948V14.412H160.948V18.132H168.748V21.204H160.948V25.428H170.116V28.5ZM186.199 15.852C188.671 15.852 190.063 17.388 190.063 20.124V28.5H186.751V21.132C186.751 19.356 186.367 18.564 184.855 18.564C183.439 18.564 182.527 19.476 182.527 21.252V28.5H179.239V21.132C179.239 19.356 178.879 18.564 177.367 18.564C175.951 18.564 175.039 19.476 175.039 21.252V28.5H171.751V16.236H175.039V17.916H175.087C175.735 16.86 177.007 15.852 178.855 15.852C180.487 15.852 181.591 16.692 182.071 18.012H182.119C183.127 16.788 184.255 15.852 186.199 15.852ZM199.29 15.852C202.482 15.852 204.69 18.324 204.69 22.356C204.69 26.388 202.482 28.86 199.29 28.86C197.442 28.86 196.194 27.948 195.642 27.18H195.594V28.5H192.306V11.34H195.594V17.532H195.642C196.194 16.812 197.442 15.852 199.29 15.852ZM198.474 26.34C200.298 26.34 201.282 24.756 201.282 22.356C201.282 19.956 200.298 18.396 198.474 18.396C196.698 18.396 195.642 19.836 195.642 22.356C195.642 24.9 196.698 26.34 198.474 26.34ZM218.27 22.548V23.244H209.222C209.246 25.068 210.446 26.364 212.246 26.364C213.902 26.364 214.574 25.452 214.814 24.756H218.15C217.478 27.204 215.534 28.884 212.15 28.884C208.214 28.884 205.91 26.172 205.91 22.356C205.91 18.66 208.166 15.828 212.15 15.828C216.158 15.828 218.27 18.3 218.27 22.548ZM209.222 21.06H214.934C214.934 19.356 213.854 18.3 212.126 18.3C210.494 18.3 209.366 19.332 209.222 21.06ZM228.576 17.556V11.34H231.864V28.5H228.576V27.204H228.528C227.976 27.924 226.728 28.86 224.88 28.86C221.688 28.86 219.48 26.388 219.48 22.356C219.48 18.324 221.688 15.852 224.88 15.852C226.728 15.852 227.976 16.788 228.528 17.556H228.576ZM225.696 26.34C227.472 26.34 228.528 24.9 228.528 22.356C228.528 19.836 227.472 18.396 225.696 18.396C223.872 18.396 222.864 19.956 222.864 22.356C222.864 24.756 223.872 26.34 225.696 26.34ZM242.709 17.556V11.34H245.997V28.5H242.709V27.204H242.661C242.109 27.924 240.861 28.86 239.013 28.86C235.821 28.86 233.613 26.388 233.613 22.356C233.613 18.324 235.821 15.852 239.013 15.852C240.861 15.852 242.109 16.788 242.661 17.556H242.709ZM239.829 26.34C241.605 26.34 242.661 24.9 242.661 22.356C242.661 19.836 241.605 18.396 239.829 18.396C238.005 18.396 236.997 19.956 236.997 22.356C236.997 24.756 238.005 26.34 239.829 26.34ZM260.106 22.548V23.244H251.058C251.082 25.068 252.282 26.364 254.082 26.364C255.738 26.364 256.41 25.452 256.65 24.756H259.986C259.314 27.204 257.37 28.884 253.986 28.884C250.05 28.884 247.746 26.172 247.746 22.356C247.746 18.66 250.002 15.828 253.986 15.828C257.994 15.828 260.106 18.3 260.106 22.548ZM251.058 21.06H256.77C256.77 19.356 255.69 18.3 253.962 18.3C252.33 18.3 251.202 19.332 251.058 21.06ZM270.412 17.556V11.34H273.7V28.5H270.412V27.204H270.364C269.812 27.924 268.564 28.86 266.716 28.86C263.524 28.86 261.316 26.388 261.316 22.356C261.316 18.324 263.524 15.852 266.716 15.852C268.564 15.852 269.812 16.788 270.364 17.556H270.412ZM267.532 26.34C269.308 26.34 270.364 24.9 270.364 22.356C270.364 19.836 269.308 18.396 267.532 18.396C265.708 18.396 264.7 19.956 264.7 22.356C264.7 24.756 265.708 26.34 267.532 26.34ZM282.769 28.5H278.809L285.289 11.34H289.081L295.609 28.5H291.577L290.353 24.708H283.993L282.769 28.5ZM287.161 14.748L284.905 21.828H289.465L287.209 14.748H287.161ZM301.797 28.884C298.005 28.884 295.581 26.196 295.581 22.356C295.581 18.54 298.005 15.828 301.749 15.828C305.133 15.828 307.269 17.916 307.581 20.772H304.245C304.125 19.668 303.597 18.372 301.797 18.372C299.829 18.372 298.965 20.052 298.965 22.356C298.965 24.66 299.805 26.34 301.797 26.34C303.573 26.34 304.125 25.116 304.245 23.892H307.581C307.389 26.796 305.181 28.884 301.797 28.884ZM314.805 28.884C311.013 28.884 308.589 26.196 308.589 22.356C308.589 18.54 311.013 15.828 314.757 15.828C318.141 15.828 320.277 17.916 320.589 20.772H317.253C317.133 19.668 316.605 18.372 314.805 18.372C312.837 18.372 311.973 20.052 311.973 22.356C311.973 24.66 312.813 26.34 314.805 26.34C316.581 26.34 317.133 25.116 317.253 23.892H320.589C320.397 26.796 318.189 28.884 314.805 28.884ZM327.981 28.884C324.021 28.884 321.597 26.244 321.597 22.38C321.597 18.54 324.021 15.828 328.029 15.828C331.989 15.828 334.413 18.468 334.413 22.332C334.413 26.196 331.989 28.884 327.981 28.884ZM328.005 26.364C330.021 26.364 331.053 24.804 331.053 22.356C331.053 19.908 330.021 18.372 328.005 18.372C325.989 18.372 324.957 19.908 324.957 22.356C324.957 24.804 325.989 26.364 328.005 26.364ZM344.158 23.484V16.236H347.446V28.5H344.158V26.82H344.11C343.462 27.876 342.238 28.86 340.078 28.86C337.75 28.86 336.07 27.396 336.07 24.588V16.236H339.358V23.58C339.358 25.356 340.03 26.172 341.494 26.172C343.15 26.172 344.158 25.236 344.158 23.484ZM357.127 15.852C359.455 15.852 361.159 17.316 361.159 20.124V28.5H357.847V21.132C357.847 19.356 357.175 18.564 355.735 18.564C354.055 18.564 353.047 19.476 353.047 21.252V28.5H349.759V16.236H353.047V17.916H353.095C353.743 16.86 354.967 15.852 357.127 15.852ZM368.755 26.172C369.139 26.172 369.331 26.148 369.787 26.076V28.476C369.043 28.644 368.467 28.716 367.795 28.716C365.347 28.716 364.171 27.66 364.171 24.708V18.756H362.443V16.236H364.171V12.612H367.459V16.236H369.667V18.756H367.459V24.684C367.459 25.98 367.915 26.172 368.755 26.172ZM376.74 28.86C372.66 28.86 370.932 26.844 370.836 24.42H373.98C374.1 25.716 374.94 26.508 376.692 26.508C378.18 26.508 378.684 25.932 378.684 25.164C378.684 23.916 377.316 23.772 375.612 23.388C373.452 22.884 371.148 22.116 371.148 19.596C371.148 17.364 372.996 15.852 376.26 15.852C379.98 15.852 381.54 17.772 381.684 19.908H378.54C378.396 18.948 377.892 18.228 376.332 18.228C375.084 18.228 374.532 18.684 374.532 19.404C374.532 20.388 375.492 20.46 377.292 20.892C379.668 21.444 382.068 22.14 382.068 24.948C382.068 27.444 380.172 28.86 376.74 28.86Z" fill="black"/>
<defs>
<linearGradient id="paint0_linear_1985_122" x1="99.7163" y1="0" x2="141.631" y2="37.8813" gradientUnits="userSpaceOnUse">
<stop stop-color="#FF9C27"/>
<stop offset="1" stop-color="#FD48CE"/>
</linearGradient>
<linearGradient id="paint1_linear_1985_122" x1="108.189" y1="14.5183" x2="117.88" y2="23.1965" gradientUnits="userSpaceOnUse">
<stop stop-color="#FF9C27"/>
<stop offset="1" stop-color="#FD48CE"/>
</linearGradient>
<linearGradient id="paint2_linear_1985_122" x1="112.797" y1="16.5582" x2="112.797" y2="27.1019" gradientUnits="userSpaceOnUse">
<stop offset="0.426666" stop-color="white"/>
<stop offset="1" stop-color="white" stop-opacity="0.27"/>
</linearGradient>
<linearGradient id="paint3_linear_1985_122" x1="130.336" y1="14.4059" x2="132.506" y2="15.3142" gradientUnits="userSpaceOnUse">
<stop stop-color="#FF9C27"/>
<stop offset="1" stop-color="#FD48CE"/>
</linearGradient>
<linearGradient id="paint4_linear_1985_122" x1="129.054" y1="14.4059" x2="131.191" y2="15.2813" gradientUnits="userSpaceOnUse">
<stop stop-color="#FF9C27"/>
<stop offset="1" stop-color="#FD48CE"/>
</linearGradient>
<linearGradient id="paint5_linear_1985_122" x1="130.349" y1="16.782" x2="132.105" y2="17.9459" gradientUnits="userSpaceOnUse">
<stop stop-color="#FF9C27"/>
<stop offset="1" stop-color="#FD48CE"/>
</linearGradient>
<linearGradient id="paint6_linear_1985_122" x1="129.054" y1="16.782" x2="130.802" y2="17.9253" gradientUnits="userSpaceOnUse">
<stop stop-color="#FF9C27"/>
<stop offset="1" stop-color="#FD48CE"/>
</linearGradient>
<linearGradient id="paint7_linear_1985_122" x1="130.365" y1="15.9542" x2="131.769" y2="17.1921" gradientUnits="userSpaceOnUse">
<stop stop-color="#FF9C27"/>
<stop offset="1" stop-color="#FD48CE"/>
</linearGradient>
<linearGradient id="paint8_linear_1985_122" x1="129.054" y1="15.9542" x2="130.458" y2="17.1921" gradientUnits="userSpaceOnUse">
<stop stop-color="#FF9C27"/>
<stop offset="1" stop-color="#FD48CE"/>
</linearGradient>
</defs>
</svg>
